<svg xmlns="http://www.w3.org/2000/svg" viewBox="0 0 32 32" aria-label="WalletConnect">
  <circle cx="16" cy="16" r="16" fill="#3B99FC"/>
  <path d="M9.58 12.07c3.55-3.48 9.3-3.48 12.85 0l.43.42a.44.44 0 0 1 0 .63l-1.46 1.43a.23.23 0 0 1-.32 0l-.59-.58c-2.48-2.43-6.5-2.43-8.97 0l-.63.62a.23.23 0 0 1-.32 0l-1.47-1.43a.44.44 0 0 1 0-.63l.48-.46zm15.88 2.96l1.3 1.27a.44.44 0 0 1 0 .63l-5.88 5.76a.46.46 0 0 1-.64 0l-4.18-4.1a.11.11 0 0 0-.16 0l-4.18 4.1a.46.46 0 0 1-.64 0L5.2 16.93a.44.44 0 0 1 0-.63l1.3-1.27a.46.46 0 0 1 .65 0l4.18 4.1a.11.11 0 0 0 .16 0l4.18-4.1a.46.46 0 0 1 .65 0l4.18 4.1a.11.11 0 0 0 .16 0l4.18-4.1a.46.46 0 0 1 .65 0z" fill="#fff"/>
</svg>
